<svg xmlns="http://www.w3.org/2000/svg" xmlns:xlink="http://www.w3.org/1999/xlink" contentStyleType="text/css" data-diagram-type="ACTIVITY" height="352px" preserveAspectRatio="none" style="width:272px;height:352px;background:#FFFFFF;" version="1.1" viewBox="0 0 272 352" width="272px" zoomAndPan="magnify"><defs/><g><ellipse cx="136.2832" cy="20" fill="#222222" rx="10" ry="10" style="stroke:#222222;stroke-width:1;"/><rect fill="#F1F1F1" height="33.9688" rx="12.5" ry="12.5" style="stroke:#181818;stroke-width:0.5;" width="119.6035" x="76.4814" y="50"/><text fill="#000000" font-family="sans-serif" font-size="12" lengthAdjust="spacing" textLength="99.6035" x="86.4814" y="71.1387">Select Algorithm</text><rect fill="#F1F1F1" height="33.9688" rx="12.5" ry="12.5" style="stroke:#181818;stroke-width:0.5;" width="178.3262" x="47.1201" y="103.9688"/><text fill="#000000" font-family="sans-serif" font-size="12" lengthAdjust="spacing" textLength="158.3262" x="57.1201" y="125.1074">Select Visualization Speed</text><rect fill="#F1F1F1" height="33.9688" rx="12.5" ry="12.5" style="stroke:#181818;stroke-width:0.5;" width="91.7832" x="90.3916" y="157.9375"/><text fill="#000000" font-family="sans-serif" font-size="12" lengthAdjust="spacing" textLength="71.7832" x="100.3916" y="179.0762">Click 'Solve'</text><rect fill="#F1F1F1" height="33.9688" rx="12.5" ry="12.5" style="stroke:#181818;stroke-width:0.5;" width="90.5234" x="91.0215" y="211.9063"/><text fill="#000000" font-family="sans-serif" font-size="12" lengthAdjust="spacing" textLength="70.5234" x="101.0215" y="233.0449">Call 'Solver'</text><rect fill="#F1F1F1" height="33.9688" rx="12.5" ry="12.5" style="stroke:#181818;stroke-width:0.5;" width="250.5664" x="11" y="265.875"/><text fill="#000000" font-family="sans-serif" font-size="12" lengthAdjust="spacing" textLength="230.5664" x="21" y="287.0137">Return solution path and finding steps</text><ellipse cx="136.2832" cy="330.8438" fill="none" rx="11" ry="11" style="stroke:#222222;stroke-width:1;"/><ellipse cx="136.2832" cy="330.8438" fill="#222222" rx="6" ry="6" style="stroke:#222222;stroke-width:1;"/><line style="stroke:#181818;stroke-width:1;" x1="136.2832" x2="136.2832" y1="30" y2="50"/><polygon fill="#181818" points="132.2832,40,136.2832,50,140.2832,40,136.2832,44" style="stroke:#181818;stroke-width:1;"/><line style="stroke:#181818;stroke-width:1;" x1="136.2832" x2="136.2832" y1="83.9688" y2="103.9688"/><polygon fill="#181818" points="132.2832,93.9688,136.2832,103.9688,140.2832,93.9688,136.2832,97.9688" style="stroke:#181818;stroke-width:1;"/><line style="stroke:#181818;stroke-width:1;" x1="136.2832" x2="136.2832" y1="137.9375" y2="157.9375"/><polygon fill="#181818" points="132.2832,147.9375,136.2832,157.9375,140.2832,147.9375,136.2832,151.9375" style="stroke:#181818;stroke-width:1;"/><line style="stroke:#181818;stroke-width:1;" x1="136.2832" x2="136.2832" y1="191.9063" y2="211.9063"/><polygon fill="#181818" points="132.2832,201.9063,136.2832,211.9063,140.2832,201.9063,136.2832,205.9063" style="stroke:#181818;stroke-width:1;"/><line style="stroke:#181818;stroke-width:1;" x1="136.2832" x2="136.2832" y1="245.875" y2="265.875"/><polygon fill="#181818" points="132.2832,255.875,136.2832,265.875,140.2832,255.875,136.2832,259.875" style="stroke:#181818;stroke-width:1;"/><line style="stroke:#181818;stroke-width:1;" x1="136.2832" x2="136.2832" y1="299.8438" y2="319.8438"/><polygon fill="#181818" points="132.2832,309.8438,136.2832,319.8438,140.2832,309.8438,136.2832,313.8438" style="stroke:#181818;stroke-width:1;"/><!--SRC=[FSin3eCm38NXFQVmnXtAL763Hkfk4GDMNJkAdGwS7gYgZj__z3omHKgtJ49pm5rMQnpRU_od9tj7uHs3JI5NedAEa_3yWY6RV6YuZ28_jiiFYjuKtAH_VnLZ0zG22sjXNS63geyfULWz0000]--></g></svg>