<svg xmlns="http://www.w3.org/2000/svg" xmlns:xlink="http://www.w3.org/1999/xlink" contentStyleType="text/css" data-diagram-type="ACTIVITY" height="267px" preserveAspectRatio="none" style="width:479px;height:267px;background:#FFFFFF;" version="1.1" viewBox="0 0 479 267" width="479px" zoomAndPan="magnify"><defs/><g><ellipse cx="249.3557" cy="20" fill="#222222" rx="10" ry="10" style="stroke:#222222;stroke-width:1;"/><rect fill="#F1F1F1" height="33.9688" rx="12.5" ry="12.5" style="stroke:#181818;stroke-width:0.5;" width="155.9902" x="171.3606" y="50"/><text fill="#000000" font-family="sans-serif" font-size="12" lengthAdjust="spacing" textLength="135.9902" x="181.3606" y="71.1387">Visualize Output Steps</text><polygon fill="#F1F1F1" points="32,103.9688,225.5259,103.9688,237.5259,115.9688,225.5259,127.9688,32,127.9688,20,115.9688,32,103.9688" style="stroke:#181818;stroke-width:0.5;"/><text fill="#000000" font-family="sans-serif" font-size="11" lengthAdjust="spacing" textLength="19.2178" x="132.7629" y="138.1792">Yes</text><text fill="#000000" font-family="sans-serif" font-size="11" lengthAdjust="spacing" textLength="190.0293" x="32" y="119.7769">"Restart with different algorithm?"</text><rect fill="#F1F1F1" height="33.9688" rx="12.5" ry="12.5" style="stroke:#181818;stroke-width:0.5;" width="179.2227" x="39.1516" y="160.7734"/><text fill="#000000" font-family="sans-serif" font-size="12" lengthAdjust="spacing" textLength="159.2227" x="49.1516" y="181.9121">Go to Solver Configuration</text><polygon fill="#F1F1F1" points="273.2119,103.9688,400.3027,103.9688,412.3027,115.9688,400.3027,127.9688,273.2119,127.9688,261.2119,115.9688,273.2119,103.9688" style="stroke:#181818;stroke-width:0.5;"/><text fill="#000000" font-family="sans-serif" font-size="11" lengthAdjust="spacing" textLength="19.2178" x="340.7573" y="138.1792">Yes</text><text fill="#000000" font-family="sans-serif" font-size="11" lengthAdjust="spacing" textLength="127.0908" x="273.2119" y="119.7769">"Generate New Maze?"</text><rect fill="#F1F1F1" height="33.9688" rx="12.5" ry="12.5" style="stroke:#181818;stroke-width:0.5;" width="158.4629" x="257.5259" y="160.7734"/><text fill="#000000" font-family="sans-serif" font-size="12" lengthAdjust="spacing" textLength="138.4629" x="267.5259" y="181.9121">Go to Maze Generation</text><rect fill="#F1F1F1" height="33.9688" rx="12.5" ry="12.5" style="stroke:#181818;stroke-width:0.5;" width="42.7227" x="425.9888" y="157.3711"/><text fill="#000000" font-family="sans-serif" font-size="12" lengthAdjust="spacing" textLength="22.7227" x="435.9888" y="178.5098">Exit</text><ellipse cx="249.3557" cy="245.7422" fill="none" rx="11" ry="11" style="stroke:#222222;stroke-width:1;"/><ellipse cx="249.3557" cy="245.7422" fill="#222222" rx="6" ry="6" style="stroke:#222222;stroke-width:1;"/><line style="stroke:#181818;stroke-width:1;" x1="249.3557" x2="249.3557" y1="30" y2="50"/><polygon fill="#181818" points="245.3557,40,249.3557,50,253.3557,40,249.3557,44" style="stroke:#181818;stroke-width:1;"/><line style="stroke:#181818;stroke-width:1;" x1="128.7629" x2="128.7629" y1="127.9688" y2="160.7734"/><polygon fill="#181818" points="124.7629,150.7734,128.7629,160.7734,132.7629,150.7734,128.7629,154.7734" style="stroke:#181818;stroke-width:1;"/><line style="stroke:#181818;stroke-width:1;" x1="128.7629" x2="128.7629" y1="194.7422" y2="214.7422"/><polygon fill="#181818" points="124.7629,204.7422,128.7629,214.7422,132.7629,204.7422,128.7629,208.7422" style="stroke:#181818;stroke-width:1;"/><line style="stroke:#181818;stroke-width:1;" x1="336.7573" x2="336.7573" y1="127.9688" y2="160.7734"/><polygon fill="#181818" points="332.7573,150.7734,336.7573,160.7734,340.7573,150.7734,336.7573,154.7734" style="stroke:#181818;stroke-width:1;"/><line style="stroke:#181818;stroke-width:1;" x1="336.7573" x2="336.7573" y1="194.7422" y2="214.7422"/><polygon fill="#181818" points="332.7573,204.7422,336.7573,214.7422,340.7573,204.7422,336.7573,208.7422" style="stroke:#181818;stroke-width:1;"/><line style="stroke:#181818;stroke-width:1;" x1="237.5259" x2="261.2119" y1="115.9688" y2="115.9688"/><polygon fill="#181818" points="251.2119,111.9688,261.2119,115.9688,251.2119,119.9688,255.2119,115.9688" style="stroke:#181818;stroke-width:1;"/><line style="stroke:#181818;stroke-width:1;" x1="249.3557" x2="249.3557" y1="83.9688" y2="88.9688"/><line style="stroke:#181818;stroke-width:1;" x1="249.3557" x2="128.7629" y1="88.9688" y2="88.9688"/><line style="stroke:#181818;stroke-width:1;" x1="128.7629" x2="128.7629" y1="88.9688" y2="103.9688"/><polygon fill="#181818" points="124.7629,93.9688,128.7629,103.9688,132.7629,93.9688,128.7629,97.9688" style="stroke:#181818;stroke-width:1;"/><line style="stroke:#181818;stroke-width:1;" x1="412.3027" x2="447.3501" y1="115.9688" y2="115.9688"/><line style="stroke:#181818;stroke-width:1;" x1="447.3501" x2="447.3501" y1="115.9688" y2="157.3711"/><polygon fill="#181818" points="443.3501,147.3711,447.3501,157.3711,451.3501,147.3711,447.3501,151.3711" style="stroke:#181818;stroke-width:1;"/><line style="stroke:#181818;stroke-width:1;" x1="447.3501" x2="447.3501" y1="191.3398" y2="214.7422"/><polygon fill="#181818" points="443.3501,204.7422,447.3501,214.7422,451.3501,204.7422,447.3501,208.7422" style="stroke:#181818;stroke-width:1;"/><line style="stroke:#181818;stroke-width:1;" x1="128.7629" x2="447.3501" y1="214.7422" y2="214.7422"/><line style="stroke:#181818;stroke-width:1;" x1="249.3557" x2="249.3557" y1="214.7422" y2="234.7422"/><polygon fill="#181818" points="245.3557,224.7422,249.3557,234.7422,253.3557,224.7422,249.3557,228.7422" style="stroke:#181818;stroke-width:1;"/><!--SRC=[ROx12i8m44Jl-nL3J-qlr4CF8ZsfO47m673JBiIa91ih_NfJ4KyUP-RncAGcAb5xbPIDavLnpZfdnQ0yfnsHMDJLXTF6OH6TS1ThER9N63U6MAf7Lw61JknHtpWr1BHzW0OCmJqvOX-ybJ57enByZjWb_dXxzbnAneaN7CtANVNVistuqZy5eJsyH4lmvHDHqZ2_0G00]--></g></svg>